# Blender v3.1.2 OBJ File: 'pecera.blend'
# www.blender.org
mtllib agua.mtl
o Plane.001
v -0.165325 0.604289 0.286351
v -0.212539 0.604289 0.253294
v -0.113090 0.604289 0.310709
v -0.057416 0.604289 0.325627
v 0.000000 0.604289 0.330652
v 0.057416 0.604289 0.325624
v 0.113090 0.604289 0.310709
v 0.165325 0.604289 0.286351
v 0.212539 0.604289 0.253294
v 0.253293 0.604289 0.212539
v 0.286351 0.604289 0.165325
v 0.310709 0.604289 0.113090
v 0.325627 0.604289 0.057416
v 0.330652 0.604289 0.000000
v 0.325627 0.604289 -0.057416
v 0.310709 0.604289 -0.113090
v 0.286351 0.604289 -0.165325
v 0.253293 0.604289 -0.212538
v 0.212539 0.604289 -0.253293
v 0.165325 0.604289 -0.286351
v 0.113090 0.604289 -0.310709
v 0.057416 0.604289 -0.325628
v 0.000000 0.604289 -0.330652
v -0.057416 0.604289 -0.325628
v -0.113090 0.604289 -0.310709
v -0.165325 0.604289 -0.286351
v -0.212539 0.604289 -0.253293
v -0.253293 0.604289 -0.212538
v -0.286351 0.604289 -0.165325
v -0.310709 0.604289 -0.113090
v -0.325627 0.604289 -0.057416
v -0.330652 0.604289 0.000000
v -0.325624 0.604289 0.057416
v -0.310709 0.604289 0.113090
v -0.286351 0.604289 0.165325
v -0.253293 0.604289 0.212539
vt 0.393731 0.373353
vt 0.417337 0.356824
vt 0.443455 0.344645
vt 0.471292 0.337186
vt 0.500000 0.334674
vt 0.528708 0.337188
vt 0.556545 0.344645
vt 0.582663 0.356824
vt 0.606269 0.373353
vt 0.626646 0.393731
vt 0.643176 0.417337
vt 0.655355 0.443455
vt 0.662814 0.471292
vt 0.665326 0.500000
vt 0.662814 0.528708
vt 0.655355 0.556545
vt 0.643176 0.582663
vt 0.626647 0.606269
vt 0.606269 0.626647
vt 0.582663 0.643176
vt 0.556545 0.655355
vt 0.528708 0.662814
vt 0.500000 0.665326
vt 0.471292 0.662814
vt 0.443455 0.655355
vt 0.417337 0.643176
vt 0.393731 0.626647
vt 0.373353 0.606269
vt 0.356824 0.582663
vt 0.344645 0.556545
vt 0.337186 0.528708
vt 0.334674 0.500000
vt 0.337188 0.471292
vt 0.344645 0.443455
vt 0.356824 0.417337
vt 0.373354 0.393731
vn 0.0000 1.0000 -0.0000
usemtl Material
s off
f 2/1/1 1/2/1 3/3/1 4/4/1 5/5/1 6/6/1 7/7/1 8/8/1 9/9/1 10/10/1 11/11/1 12/12/1 13/13/1 14/14/1 15/15/1 16/16/1 17/17/1 18/18/1 19/19/1 20/20/1 21/21/1 22/22/1 23/23/1 24/24/1 25/25/1 26/26/1 27/27/1 28/28/1 29/29/1 30/30/1 31/31/1 32/32/1 33/33/1 34/34/1 35/35/1 36/36/1
