# Blender 3.1.0
# www.blender.org
mtllib Almohada.mtl
o polySurface4
v -0.072768 0.274293 1.044584
v -0.234570 0.133668 0.846725
v -0.103874 -0.083414 0.884378
v 0.077022 0.025497 1.091028
v -0.289921 0.100343 0.690747
v -0.159225 -0.116738 0.721470
v 0.182573 0.384811 0.690747
v 0.127222 0.351488 0.846725
v 0.257919 0.134406 0.884378
v 0.313269 0.167730 0.721470
v -0.072768 0.274293 -1.046068
v 0.127223 0.351489 -0.848209
v 0.257919 0.134406 -0.885862
v 0.077022 0.025497 -1.092512
v 0.182574 0.384812 -0.692231
v 0.313269 0.167731 -0.722954
v -0.289920 0.100344 -0.692231
v -0.234570 0.133668 -0.848209
v -0.103874 -0.083413 -0.885862
v -0.159225 -0.116737 -0.722954
v -0.244338 0.559264 1.138097
v -0.203167 0.490881 0.791772
v -0.315022 0.267296 0.690747
v -0.275676 0.257522 0.818058
v 0.026821 -0.300495 0.846725
v -0.028530 -0.333819 0.690747
v 0.107273 -0.434123 0.690747
v 0.117046 -0.394778 0.818058
v 0.357210 -0.439888 0.791772
v 0.398381 -0.508273 1.138097
v 0.226812 -0.223300 1.044584
v 0.046771 0.485116 0.690747
v 0.036997 0.445770 0.818058
v 0.469065 -0.216304 0.690747
v 0.429720 -0.206530 0.818058
v 0.443964 -0.049351 0.690747
v 0.388613 -0.082676 0.846725
v -0.244337 0.559266 -1.139581
v 0.036997 0.445770 -0.819542
v -0.203166 0.490881 -0.793256
v 0.046771 0.485116 -0.692231
v 0.469065 -0.216302 -0.692231
v 0.357211 -0.439888 -0.793256
v 0.398382 -0.508272 -1.139581
v 0.429720 -0.206529 -0.819542
v 0.226812 -0.223300 -1.046068
v 0.388614 -0.082675 -0.848209
v 0.443965 -0.049350 -0.692231
v -0.315022 0.267296 -0.692231
v -0.275676 0.257523 -0.819542
v 0.107273 -0.434123 -0.692231
v 0.117046 -0.394778 -0.819542
v -0.028530 -0.333819 -0.692231
v 0.026821 -0.300494 -0.848209
v -0.331399 0.294499 0.344968
v -0.339569 0.308069 -0.000742
v -0.305122 0.125592 -0.000742
v -0.300058 0.117182 0.344968
v -0.331399 0.294499 -0.346452
v -0.300058 0.117182 -0.346452
v -0.018392 -0.350657 0.344968
v -0.013328 -0.359068 -0.000742
v 0.131820 -0.474896 -0.000742
v 0.123650 -0.461326 0.344968
v -0.018392 -0.350657 -0.346452
v 0.123650 -0.461326 -0.346452
v 0.172436 0.401650 0.344968
v 0.167372 0.410060 -0.000742
v 0.022223 0.525889 -0.000742
v 0.030393 0.512319 0.344968
v 0.172436 0.401650 -0.346452
v 0.030393 0.512319 -0.346452
v -0.227668 0.531579 -0.346452
v 0.381712 -0.480586 0.344968
v 0.485443 -0.243506 0.344968
v 0.454102 -0.066189 0.344968
v 0.313269 0.167730 0.344968
v -0.159225 -0.116738 0.344968
v -0.159225 -0.116737 -0.346452
v 0.381713 -0.480585 -0.346452
v 0.485443 -0.243506 -0.346452
v 0.454102 -0.066189 -0.346452
v 0.313269 0.167731 -0.346452
v -0.237121 0.547280 -0.000742
v -0.159225 -0.116738 -0.000742
v 0.391165 -0.496287 -0.000742
v 0.493613 -0.257076 -0.000742
v 0.459165 -0.074600 -0.000742
v 0.313269 0.167730 -0.000742
v -0.227668 0.531579 0.344968
v -0.227668 0.531579 0.344968
v -0.237121 0.547280 -0.000742
v 0.046771 0.485116 -0.692231
v 0.030393 0.512319 -0.346452
v -0.315022 0.267296 0.690747
v -0.331399 0.294499 0.344968
v -0.339569 0.308069 -0.000742
v -0.315022 0.267296 -0.692231
v -0.331399 0.294499 -0.346452
v -0.227668 0.531579 -0.346452
v 0.022223 0.525889 -0.000742
v 0.030393 0.512319 0.344968
v -0.203167 0.490881 0.791772
v 0.046771 0.485116 0.690747
v -0.203166 0.490881 -0.793256
v -0.203167 0.490881 0.791772
v -0.203166 0.490881 -0.793256
v -0.227668 0.531579 -0.346452
v -0.237121 0.547280 -0.000742
v -0.227668 0.531579 0.344968
v -0.203167 0.490881 0.791772
v -0.203166 0.490881 -0.793256
vn -0.0264 0.0439 0.9987
vn -0.6548 -0.3413 0.6743
vn -0.6502 -0.2628 0.7129
vn -0.0788 0.1309 0.9883
vn -0.8596 -0.3597 0.3629
vn -0.9148 -0.3894 0.1071
vn -0.8491 -0.5112 0.1328
vn -0.8191 -0.4341 0.3751
vn 0.7721 0.6264 0.1071
vn 0.7201 0.5913 0.3629
vn 0.7669 0.5208 0.3751
vn 0.8491 0.5112 0.1328
vn 0.6081 0.4189 0.6743
vn 0.5364 0.4517 0.7129
vn -0.0264 0.0439 -0.9987
vn 0.6081 0.4190 -0.6743
vn 0.5364 0.4517 -0.7129
vn -0.0788 0.1309 -0.9883
vn 0.7201 0.5913 -0.3629
vn 0.7722 0.6263 -0.1071
vn 0.8491 0.5112 -0.1328
vn 0.7669 0.5208 -0.3751
vn -0.9148 -0.3894 -0.1071
vn -0.8596 -0.3597 -0.3629
vn -0.8191 -0.4341 -0.3751
vn -0.8491 -0.5112 -0.1328
vn -0.6548 -0.3413 -0.6743
vn -0.6502 -0.2628 -0.7129
vn -0.5151 0.8555 -0.0536
vn -0.3704 0.6153 0.6955
vn -0.2981 0.1089 0.9483
vn -0.9555 0.2924 -0.0399
vn -0.9806 -0.1678 0.1016
vn -0.9285 -0.1793 0.3253
vn 0.0318 -0.0528 0.9981
vn -0.6533 -0.4378 0.6176
vn -0.7201 -0.5913 0.3629
vn -0.7722 -0.6263 0.1071
vn -0.6069 -0.7883 0.1016
vn -0.5929 -0.7366 0.3253
vn -0.0970 -0.9940 0.0509
vn 0.5156 -0.8563 0.0287
vn 0.5151 -0.8555 -0.0536
vn -0.1887 -0.9812 -0.0399
vn -0.0318 0.0528 0.9981
vn 0.0264 -0.0439 0.9987
vn -0.6081 -0.4189 0.6743
vn -0.6926 -0.3725 0.6176
vn 0.6069 0.7883 0.1016
vn 0.5929 0.7366 0.3253
vn 0.0497 0.3677 0.9286
vn 0.1887 0.9812 -0.0399
vn 0.6926 0.3725 0.6176
vn 0.9239 -0.3794 0.0509
vn 0.9555 -0.2924 -0.0399
vn 0.9806 0.1678 0.1016
vn 0.9148 0.3894 0.1071
vn 0.8596 0.3597 0.3629
vn 0.9285 0.1793 0.3253
vn 0.6548 0.3413 0.6743
vn 0.6533 0.4378 0.6176
vn 0.0318 -0.0528 -0.9981
vn 0.6926 0.3725 -0.6176
vn -0.5151 0.8555 0.0536
vn -0.3511 0.5832 0.7322
vn 0.0399 0.3589 0.9325
vn 0.1887 0.9812 0.0399
vn 0.6071 0.7881 -0.1016
vn 0.5929 0.7366 -0.3253
vn 0.9239 -0.3794 -0.0509
vn 0.5156 -0.8563 -0.0287
vn 0.5151 -0.8555 0.0536
vn 0.9555 -0.2924 0.0399
vn -0.0318 0.0528 -0.9981
vn 0.0264 -0.0439 -0.9987
vn 0.6548 0.3413 -0.6743
vn 0.6533 0.4378 -0.6176
vn 0.8596 0.3597 -0.3629
vn 0.9148 0.3894 -0.1071
vn 0.9806 0.1675 -0.1015
vn 0.9285 0.1793 -0.3253
vn -0.9806 -0.1675 -0.1015
vn -0.9285 -0.1793 -0.3253
vn -0.2870 0.1117 0.9514
vn -0.9555 0.2924 0.0399
vn -0.6533 -0.4378 -0.6176
vn -0.0970 -0.9940 -0.0509
vn -0.1887 -0.9812 0.0399
vn -0.6071 -0.7881 -0.1016
vn -0.7721 -0.6264 -0.1071
vn -0.7201 -0.5913 -0.3629
vn -0.5929 -0.7366 -0.3253
vn -0.6081 -0.4189 -0.6743
vn -0.6926 -0.3725 -0.6176
vn 0.0788 -0.1309 0.9883
vn -0.5364 -0.4517 0.7129
vn 0.6502 0.2628 0.7129
vn 0.8191 0.4341 0.3751
vn 0.8191 0.4341 -0.3751
vn 0.0788 -0.1309 -0.9883
vn 0.6502 0.2628 -0.7129
vn -0.5364 -0.4517 -0.7129
vn -0.7669 -0.5208 -0.3751
vn -0.7669 -0.5208 0.3751
vn -0.9850 -0.1717 0.0197
vn -0.9837 -0.1799 -0.0000
vn -0.9226 -0.3857 -0.0000
vn -0.9228 -0.3851 0.0082
vn -0.9850 -0.1717 -0.0197
vn -0.9228 -0.3851 -0.0082
vn -0.7722 -0.6353 0.0082
vn -0.7726 -0.6349 -0.0000
vn -0.6193 -0.7852 -0.0000
vn -0.6125 -0.7902 0.0198
vn -0.7722 -0.6353 -0.0082
vn -0.6125 -0.7902 -0.0198
vn 0.7722 0.6353 0.0082
vn 0.7726 0.6349 -0.0000
vn 0.6193 0.7852 -0.0000
vn 0.6122 0.7904 0.0200
vn 0.7722 0.6353 -0.0082
vn 0.6122 0.7904 -0.0200
vn -0.0000 -0.0000 1.0000
vn -0.0712 -0.9955 0.0629
vn -0.0716 -0.9955 0.0618
vn 0.0006 -0.0000 1.0000
vn -0.0006 -0.0000 1.0000
vn 0.9850 0.1712 0.0200
vn 0.9228 0.3851 0.0082
vn 0.9133 -0.4026 0.0617
vn 0.9131 -0.4028 0.0628
vn 0.8567 0.5158 -0.0000
vn -0.8567 -0.5158 -0.0000
vn -0.0715 -0.9955 -0.0617
vn -0.0711 -0.9955 -0.0629
vn 0.9131 -0.4028 -0.0628
vn 0.9133 -0.4026 -0.0617
vn 0.9228 0.3851 -0.0082
vn 0.9850 0.1712 -0.0200
vn -0.0023 0.5138 0.8579
vn -0.0783 -0.9969 -0.0000
vn 0.9177 -0.3973 -0.0000
vn 0.9837 0.1799 -0.0000
vn 0.9226 0.3857 -0.0000
vn -0.4862 0.1828 0.8545
vn 0.0504 0.6351 0.7708
vn 0.0575 0.5189 0.8529
vn -0.0003 -0.0005 1.0000
vn 0.0003 0.0005 1.0000
vn -0.4695 0.2399 0.8497
vn -0.5629 0.2359 0.7922
vn -0.9133 0.4026 0.0617
vn -0.9131 0.4028 0.0629
vn 0.0390 0.5943 0.8029
vn 0.0712 0.9955 0.0629
vn 0.0715 0.9955 0.0617
vn 0.0715 0.9955 -0.0617
vn 0.0712 0.9955 -0.0629
vn -0.9131 0.4028 -0.0629
vn -0.9133 0.4026 -0.0618
vn -0.5888 0.2639 0.7639
vn 0.0783 0.9969 -0.0000
vn -0.9177 0.3973 -0.0000
vn -0.0000 0.0021 1.0000
vn -0.0269 0.0067 0.9996
vn 0.0003 0.0007 1.0000
vn -0.0000 -0.0000 0.9996
vn 0.0011 -0.0008 1.0000
vn -0.0011 0.0008 1.0000
vn -0.0098 0.0024 0.9999
vn -0.0000 -0.0000 0.9999
vt 0.433174 0.125000
vt 0.418934 1.000000
vt 0.418934 -0.000000
vt 0.500000 -0.000000
vt 0.500000 1.000000
vt 0.500000 0.125000
vt 0.433174 0.969769
vt 0.500000 0.969769
vt 0.189293 0.727559
vt 0.074200 0.745958
vt 0.427449 0.244417
vt 0.500000 0.244417
vt 0.074200 0.512804
vt 0.189293 0.512804
vt 0.493806 0.811961
vt 0.019715 0.853897
vt 0.913496 0.745958
vt 0.913496 0.512804
vt 0.011292 0.523625
vt 0.486048 0.507751
vt 0.798403 0.727559
vt 0.798403 0.512804
vt 0.433174 0.780231
vt 0.427449 0.744417
vt 0.969227 0.822149
vt 0.960804 0.491877
vt 0.500000 0.744417
vt 0.500000 0.780231
vt 0.378041 0.125000
vt 0.344769 0.125000
vt 0.375000 0.975561
vt 0.350561 -0.000000
vt 0.375000 1.000000
vt 0.375000 0.000000
vt 0.581066 -0.000000
vt 0.581066 1.000000
vt 0.566826 0.969769
vt 0.649439 0.000000
vt 0.625000 0.975561
vt 0.625000 1.000000
vt 0.625000 0.000000
vt 0.655231 0.125000
vt 0.621959 0.125000
vt 0.566826 0.125000
vt 0.170680 0.914511
vt 0.375000 0.274439
vt 0.350561 0.250000
vt 0.092141 0.914511
vt 0.375000 0.250000
vt 0.170680 0.111097
vt 0.649439 0.250000
vt 0.092141 0.111097
vt 0.625000 0.250000
vt 0.189293 0.298048
vt 0.572551 0.244417
vt 0.074200 0.279650
vt 0.125000 0.125000
vt 0.500560 1.076785
vt 0.003608 1.093401
vt 0.125000 0.250000
vt 0.895555 0.914511
vt 0.155231 0.125000
vt 0.817016 0.914511
vt 0.149439 0.250000
vt 0.375000 0.475561
vt 0.850561 0.250000
vt 0.817016 0.111097
vt 0.844769 0.125000
vt 0.875000 0.125000
vt 0.471537 -0.061283
vt 0.875000 0.250000
vt -0.025415 -0.044666
vt 0.895555 0.111097
vt 0.478290 0.203541
vt 0.913496 0.279650
vt 0.002870 0.193354
vt 0.798403 0.298048
vt 0.375000 0.774439
vt 0.149439 0.000000
vt 0.375000 0.750000
vt 0.125000 0.000000
vt 0.997511 1.060168
vt 0.625000 0.774439
vt 0.850561 -0.000000
vt 0.875000 0.000000
vt 0.625000 0.750000
vt 0.968488 -0.077899
vt 0.566826 0.780231
vt 0.952381 0.161605
vt 0.572551 0.744417
vt 0.375000 0.925275
vt 0.375000 0.875000
vt 0.433174 0.875000
vt 0.433174 0.922380
vt 0.375000 0.824725
vt 0.433174 0.827620
vt 0.566826 0.922380
vt 0.566826 0.875000
vt 0.625000 0.875000
vt 0.750000 -0.000000
vt 0.625000 0.925275
vt 0.699725 0.000000
vt 0.566826 0.827620
vt 0.625000 0.824725
vt 0.800275 0.000000
vt 0.341585 0.727559
vt 0.493848 0.727559
vt 0.493848 0.914511
vt 0.375000 0.375000
vt 0.332282 0.914511
vt 0.375000 0.324725
vt 0.646111 0.727559
vt 0.655414 0.914511
vt 0.375000 0.425275
vt 0.208660 0.125000
vt 0.708660 0.125000
vt 0.699725 0.250000
vt 0.332282 0.111097
vt 0.341585 0.298048
vt 0.348064 0.512804
vt 0.500000 0.920364
vt 0.500000 0.829636
vt 0.791340 0.125000
vt 0.800275 0.250000
vt 0.655415 0.111097
vt 0.646111 0.298048
vt 0.639632 0.512804
vt 0.250000 0.125000
vt 0.500000 0.875000
vt 0.750000 0.125000
vt 0.750000 0.250000
vt 0.493848 0.111097
vt 0.493848 0.298048
vt 0.493848 0.512804
vt 0.291340 0.125000
vt 0.291340 0.125000
vt 0.250000 0.125000
vt 0.149439 0.250000
vt 0.375000 0.475561
vt 0.199725 0.250000
vt 0.375000 0.425275
vt 0.375000 0.975561
vt 0.350561 -0.000000
vt 0.375000 0.925275
vt 0.300275 0.000000
vt 0.250000 -0.000000
vt 0.375000 0.875000
vt 0.375000 0.774439
vt 0.149439 0.000000
vt 0.199725 0.000000
vt 0.375000 0.824725
vt 0.208660 0.125000
vt 0.375000 0.375000
vt 0.250000 0.250000
vt 0.375000 0.324725
vt 0.300275 0.250000
vt 0.344769 0.125000
vt 0.375000 0.274439
vt 0.350561 0.250000
vt 0.155231 0.125000
vt 0.344769 0.125000
vt 0.155231 0.125000
vt 0.208660 0.125000
vt 0.250000 0.125000
vt 0.291340 0.125000
vt 0.344769 0.125000
vt 0.155231 0.125000
s 1
usemtl atras
f 1/1/1 2/3/2 3/4/3 4/6/4
f 2/2/5 5/7/6 6/8/7 3/5/8
usemtl frente
f 7/9/9 8/10/10 9/13/11 10/14/12
usemtl atras
f 8/11/13 1/1/1 4/6/4 9/12/14
usemtl costado
f 11/15/15 12/16/16 13/19/17 14/20/18
usemtl frente
f 12/17/19 15/21/20 16/22/21 13/18/22
usemtl atras
f 17/23/23 18/24/24 19/27/25 20/28/26
usemtl costado
f 18/25/27 11/15/15 14/20/18 19/26/28
usemtl atras
f 21/29/29 22/30/30 23/32/31 24/34/32
f 23/31/33 5/7/6 2/2/5 24/33/34
f 2/3/2 1/1/1 21/29/35 24/34/36
f 25/36/37 26/37/38 27/39/39 28/40/40
f 27/38/41 29/42/42 30/43/43 28/41/44
f 30/43/45 31/44/46 25/35/47 28/41/48
usemtl frente
f 8/10/10 7/9/9 32/45/49 33/48/50
usemtl atras
f 32/47/51 22/30/30 21/29/29 33/49/52
f 21/29/35 1/1/1 8/11/13 33/49/53
f 30/43/43 29/42/42 34/51/54 35/53/55
usemtl frente
f 34/50/56 36/54/57 37/56/58 35/52/59
usemtl atras
f 37/55/60 31/44/46 30/43/45 35/53/61
usemtl costado
f 12/16/16 11/15/15 38/58/62 39/59/63
usemtl atras
f 38/57/64 40/62/65 41/64/66 39/60/67
usemtl frente
f 41/63/68 15/21/20 12/17/19 39/61/69
usemtl atras
f 42/66/70 43/68/71 44/69/72 45/71/73
usemtl costado
f 44/70/74 46/74/75 47/76/76 45/72/77
usemtl frente
f 47/75/78 48/77/79 42/67/80 45/73/81
usemtl atras
f 18/24/24 17/23/23 49/78/82 50/80/83
f 49/79/84 40/62/65 38/57/64 50/81/85
usemtl costado
f 38/58/62 11/15/15 18/25/27 50/82/86
usemtl atras
f 44/69/72 43/68/71 51/84/87 52/85/88
f 51/83/89 53/88/90 54/90/91 52/86/92
usemtl costado
f 54/89/93 46/74/75 44/70/74 52/87/94
usemtl atras
f 4/6/95 3/4/96 25/35/47 31/44/46
f 9/12/97 4/6/95 31/44/46 37/55/60
usemtl frente
f 10/14/12 9/13/98 37/56/58 36/54/57
f 13/18/99 16/22/21 48/77/79 47/75/78
usemtl costado
f 14/20/100 13/19/101 47/76/76 46/74/75
f 19/26/102 14/20/100 46/74/75 54/89/93
usemtl atras
f 20/28/26 19/27/103 54/90/91 53/88/90
f 3/5/104 6/8/7 26/37/38 25/36/37
f 55/91/105 56/92/106 57/93/107 58/94/108
f 56/92/106 59/95/109 60/96/110 57/93/107
f 61/97/111 62/98/112 63/99/113 64/101/114
f 62/98/112 65/103/115 66/104/116 63/99/113
usemtl frente
f 67/106/117 68/107/118 69/108/119 70/110/120
f 68/107/118 71/112/121 72/113/122 69/108/119
usemtl atras
f 5/7/6 23/31/33 55/91/105 58/94/108
usemtl frente
f 69/109/123 72/114/123 94/141/123 101/153/123
usemtl atras
f 29/42/42 27/38/41 64/102/124 74/116/125
f 27/39/39 26/37/38 61/97/111 64/101/114
usemtl frente
f 56/92/123 55/91/126 96/144/127 97/147/123
f 32/45/49 7/9/9 67/106/117 70/110/120
f 36/54/57 34/50/56 75/118/128 76/119/129
usemtl atras
f 34/51/54 29/42/42 74/116/130 75/117/131
usemtl frente
f 7/9/9 10/14/12 77/120/132 67/106/117
usemtl atras
f 58/94/108 78/121/133 6/8/7 5/7/6
f 60/96/110 59/95/109 49/78/82 17/23/23
f 17/23/23 20/28/26 79/122/133 60/96/110
f 66/104/116 65/103/115 53/88/90 51/83/89
f 80/123/134 66/105/135 51/84/87 43/68/71
f 81/124/136 80/123/137 43/68/71 42/66/70
usemtl frente
f 82/126/138 81/125/139 42/67/80 48/77/79
f 71/112/121 83/127/132 16/22/21 15/21/20
f 72/113/122 71/112/121 15/21/20 41/63/68
f 70/111/123 69/109/123 101/153/123 102/155/123
f 32/46/51 70/111/123 102/155/123 104/158/140
f 77/120/132 10/14/12 36/54/57 76/119/129
f 16/22/21 83/127/132 82/126/138 48/77/79
usemtl atras
f 79/122/133 20/28/26 53/88/90 65/103/115
f 6/8/7 78/121/133 61/97/111 26/37/38
f 58/94/108 57/93/107 85/129/133 78/121/133
f 57/93/107 60/96/110 79/122/133 85/129/133
f 78/121/133 85/129/133 62/98/112 61/97/111
f 85/129/133 79/122/133 65/103/115 62/98/112
f 64/102/124 63/100/141 86/130/141 74/116/125
f 63/100/141 66/105/135 80/123/134 86/130/141
f 74/116/130 86/130/142 87/131/142 75/117/131
f 86/130/142 80/123/137 81/124/136 87/131/142
usemtl frente
f 75/118/128 87/132/143 88/133/144 76/119/129
f 87/132/143 81/125/139 82/126/138 88/133/144
f 76/119/129 88/133/144 89/134/132 77/120/132
f 88/133/144 82/126/138 83/127/132 89/134/132
f 77/120/132 89/134/132 68/107/118 67/106/117
f 89/134/132 83/127/132 71/112/121 68/107/118
f 55/91/126 23/31/31 95/142/145 96/144/127
f 41/64/66 40/62/65 105/160/146 93/138/147
f 49/78/84 59/95/148 99/151/149 98/148/150
f 23/32/31 22/30/30 103/157/151 95/143/145
usemtl atras
f 95/143/145 103/157/151 91/136/152 96/145/153
f 103/157/154 104/159/140 102/156/155 91/136/156
f 100/152/157 94/140/158 93/138/147 105/160/146
f 99/150/159 100/152/160 105/160/161 98/149/150
f 102/156/155 101/154/162 92/137/162 91/136/156
f 101/154/162 94/140/158 100/152/157 92/137/162
f 99/150/159 97/146/163 92/137/163 100/152/160
f 97/146/163 96/145/153 91/136/152 92/137/163
usemtl frente
f 72/114/123 41/65/66 93/139/147 94/141/123
f 22/30/30 32/47/51 104/159/140 103/157/154
f 59/95/148 56/92/123 97/147/123 99/151/149
f 40/62/65 49/79/84 98/149/150 105/160/161
f 92/137/123 91/136/123 90/135/164 84/128/123
f 103/157/165 91/136/123 90/135/166 106/161/167
f 100/152/168 92/137/123 84/128/123 73/115/169
f 105/160/170 100/152/168 73/115/169 107/162/171
f 73/115/168 84/128/123 109/164/123 108/163/169
f 106/161/165 90/135/123 110/165/166 111/166/167
f 107/162/170 73/115/168 108/163/169 112/167/171
f 84/128/123 90/135/123 110/165/164 109/164/123
