# Blender v3.1.2 OBJ File: ''
# www.blender.org
mtllib Cuadro.mtl
o Cube_Cube.001
v -0.595067 -0.394220 0.012641
v -0.645067 0.444220 0.012641
v -0.595067 -0.394220 -0.012641
v -0.645067 0.444220 -0.012641
v 0.595067 -0.394220 0.012641
v 0.645067 0.444220 0.012641
v 0.595067 -0.394220 -0.012641
v 0.645067 0.444220 -0.012641
v 0.455672 -0.394220 -0.012641
v 0.493959 0.444220 -0.012641
v 0.455672 -0.394220 0.012641
v 0.493959 0.444220 0.012641
v -0.454343 -0.394220 -0.012641
v -0.492519 0.444220 0.012641
v -0.492519 0.444220 -0.012641
v -0.454343 -0.394220 0.012641
v -0.636882 0.306970 0.012641
v -0.636882 0.306970 -0.012641
v 0.636882 0.306970 -0.012641
v 0.636882 0.306970 0.012641
v 0.487691 0.306970 0.012641
v 0.487691 0.306970 -0.012641
v -0.486270 0.306970 -0.012641
v -0.486270 0.306970 0.012641
v -0.603254 -0.256941 -0.012641
v 0.603254 -0.256941 -0.012641
v 0.603254 -0.256941 0.012641
v 0.461940 -0.256941 0.012641
v 0.461940 -0.256941 -0.012641
v -0.460594 -0.256941 -0.012641
v -0.460594 -0.256941 0.012641
v -0.603254 -0.256941 0.012641
v -0.486270 0.306970 0.001226
v 0.487691 0.306970 0.001226
v 0.461940 -0.256941 0.001226
v -0.460594 -0.256941 0.001226
vt 0.754674 0.509420
vt 0.732366 0.872248
vt 0.096231 0.868359
vt 0.118540 0.505531
vt 0.584076 0.000000
vt 0.625000 0.000000
vt 0.625000 0.250000
vt 0.584076 0.250000
vt 0.584076 0.470719
vt 0.625000 0.470719
vt 0.625000 0.500000
vt 0.584076 0.500000
vt 0.625000 0.750000
vt 0.584076 0.750000
vt 0.584076 0.970439
vt 0.625000 0.970439
vt 0.625000 1.000000
vt 0.584076 1.000000
vt 0.345719 0.500000
vt 0.375000 0.500000
vt 0.375000 0.750000
vt 0.345719 0.750000
vt 0.845439 0.500000
vt 0.875000 0.500000
vt 0.875000 0.750000
vt 0.845439 0.750000
vt 0.654281 0.500000
vt 0.654281 0.750000
vt 0.154561 0.500000
vt 0.154561 0.750000
vt 0.625000 0.779281
vt 0.584076 0.779281
vt 0.584076 0.279561
vt 0.625000 0.279561
vt 0.125000 0.500000
vt 0.125000 0.750000
vt 0.415933 0.779281
vt 0.415933 0.970439
vt 0.415933 0.250000
vt 0.415933 0.279561
vt 0.415933 0.470719
vt 0.415933 0.470719
vt 0.584076 0.470719
vt 0.415933 0.750000
vt 0.415933 1.000000
vt 0.415933 0.500000
vt 0.415933 0.000000
vt 0.375000 0.000000
vt 0.375000 0.250000
vt 0.375000 0.470719
vt 0.375000 0.970439
vt 0.375000 1.000000
vt 0.375000 0.779281
vt 0.375000 0.279561
vt 0.415933 0.279561
vt 0.584076 0.279561
vn 0.0000 0.0000 -1.0000
vn -0.9982 -0.0595 0.0000
vn 0.9982 -0.0595 0.0000
vn 0.0000 0.0000 1.0000
vn 0.0000 -1.0000 0.0000
vn 0.0000 1.0000 0.0000
vn -0.9990 0.0456 0.0000
vn 0.9990 0.0455 0.0000
usemtl Material.001
s off
f 36/1/1 33/2/1 34/3/1 35/4/1
usemtl Material.002
f 17/5/2 2/6/2 4/7/2 18/8/2
f 22/9/1 10/10/1 8/11/1 19/12/1
f 19/12/3 8/11/3 6/13/3 20/14/3
f 24/15/4 14/16/4 2/17/4 17/18/4
f 9/19/5 7/20/5 5/21/5 11/22/5
f 15/23/6 4/24/6 2/25/6 14/26/6
f 8/11/6 10/27/6 12/28/6 6/13/6
f 13/29/5 9/19/5 11/22/5 16/30/5
f 20/14/4 6/13/4 12/31/4 21/32/4
f 23/33/1 15/34/1 10/10/1 22/9/1
f 18/8/1 4/7/1 15/34/1 23/33/1
f 3/35/5 13/29/5 16/30/5 1/36/5
f 10/27/6 15/23/6 14/26/6 12/28/6
f 21/32/4 12/31/4 14/16/4 24/15/4
f 28/37/4 21/32/4 24/15/4 31/38/4
f 25/39/1 18/8/1 23/33/1 30/40/1
f 22/9/7 29/41/7 35/42/7 34/43/7
f 27/44/4 20/14/4 21/32/4 28/37/4
f 31/38/4 24/15/4 17/18/4 32/45/4
f 26/46/3 19/12/3 20/14/3 27/44/3
f 29/41/1 22/9/1 19/12/1 26/46/1
f 32/47/2 17/5/2 18/8/2 25/39/2
f 1/48/2 32/47/2 25/39/2 3/49/2
f 9/50/1 29/41/1 26/46/1 7/20/1
f 7/20/3 26/46/3 27/44/3 5/21/3
f 16/51/4 31/38/4 32/45/4 1/52/4
f 5/21/4 27/44/4 28/37/4 11/53/4
f 13/54/1 30/40/1 29/41/1 9/50/1
f 3/49/1 25/39/1 30/40/1 13/54/1
f 11/53/4 28/37/4 31/38/4 16/51/4
f 29/41/6 30/40/6 36/55/6 35/42/6
f 23/33/5 22/9/5 34/43/5 33/56/5
f 30/40/8 23/33/8 33/56/8 36/55/8
